<svg width="500" height="500" viewBox="0 0 500 500" xmlns="http://www.w3.org/2000/svg">
    <defs/>
    <path fill="#000000" stroke="none" d="M 0 0 L 500 0 L 500 500 L 0 500 Z"/>
    <path fill="none" stroke="#0000ff" d="M 250 250 L 251 251"/>
    <path fill="none" stroke="#00ffff" d="M 251 251 L 248 253"/>
    <path fill="none" stroke="#00ff00" d="M 248 253 L 248 248"/>
    <path fill="none" stroke="#ff0000" d="M 248 248 L 254 251"/>
    <path fill="none" stroke="#ff00ff" d="M 254 251 L 247 256"/>
    <path fill="none" stroke="#ffff00" d="M 247 256 L 246 245"/>
    <path fill="none" stroke="#ffffff" d="M 246 245 L 258 250"/>
    <path fill="none" stroke="#a52a2a" d="M 258 250 L 246 259"/>
    <path fill="none" stroke="#d2b48c" d="M 246 259 L 244 242"/>
    <path fill="none" stroke="#228b22" d="M 244 242 L 262 249"/>
    <path fill="none" stroke="#7fffd4" d="M 262 249 L 246 263"/>
    <path fill="none" stroke="#fa8072" d="M 246 263 L 242 240"/>
    <path fill="none" stroke="#800080" d="M 242 240 L 266 248"/>
    <path fill="none" stroke="#ffa500" d="M 266 248 L 246 266"/>
    <path fill="none" stroke="#808080" d="M 246 266 L 239 238"/>
    <path fill="none" stroke="#00ffff" d="M 239 238 L 269 246"/>
    <path fill="none" stroke="#00ff00" d="M 269 246 L 246 270"/>
    <path fill="none" stroke="#ff0000" d="M 246 270 L 236 237"/>
    <path fill="none" stroke="#ff00ff" d="M 236 237 L 272 245"/>
    <path fill="none" stroke="#ffff00" d="M 272 245 L 246 274"/>
    <path fill="none" stroke="#ffffff" d="M 246 274 L 232 235"/>
    <path fill="none" stroke="#a52a2a" d="M 232 235 L 274 242"/>
    <path fill="none" stroke="#d2b48c" d="M 274 242 L 246 277"/>
    <path fill="none" stroke="#228b22" d="M 246 277 L 228 234"/>
    <path fill="none" stroke="#7fffd4" d="M 228 234 L 277 239"/>
    <path fill="none" stroke="#fa8072" d="M 277 239 L 248 281"/>
    <path fill="none" stroke="#800080" d="M 248 281 L 225 233"/>
    <path fill="none" stroke="#ffa500" d="M 225 233 L 280 236"/>
    <path fill="none" stroke="#808080" d="M 280 236 L 250 284"/>
    <path fill="none" stroke="#00ffff" d="M 250 284 L 221 232"/>
    <path fill="none" stroke="#00ff00" d="M 221 232 L 282 232"/>
    <path fill="none" stroke="#ff0000" d="M 282 232 L 251 287"/>
    <path fill="none" stroke="#ff00ff" d="M 251 287 L 217 232"/>
    <path fill="none" stroke="#ffff00" d="M 217 232 L 284 228"/>
    <path fill="none" stroke="#ffffff" d="M 284 228 L 254 290"/>
    <path fill="none" stroke="#a52a2a" d="M 254 290 L 213 232"/>
    <path fill="none" stroke="#d2b48c" d="M 213 232 L 286 224"/>
    <path fill="none" stroke="#228b22" d="M 286 224 L 257 293"/>
    <path fill="none" stroke="#7fffd4" d="M 257 293 L 210 232"/>
    <path fill="none" stroke="#fa8072" d="M 210 232 L 288 220"/>
    <path fill="none" stroke="#800080" d="M 288 220 L 260 296"/>
    <path fill="none" stroke="#ffa500" d="M 260 296 L 206 233"/>
    <path fill="none" stroke="#808080" d="M 206 233 L 289 215"/>
    <path fill="none" stroke="#00ffff" d="M 289 215 L 264 298"/>
    <path fill="none" stroke="#00ff00" d="M 264 298 L 202 234"/>
    <path fill="none" stroke="#ff0000" d="M 202 234 L 290 210"/>
    <path fill="none" stroke="#ff00ff" d="M 290 210 L 268 300"/>
    <path fill="none" stroke="#ffff00" d="M 268 300 L 199 235"/>
    <path fill="none" stroke="#ffffff" d="M 199 235 L 291 205"/>
    <path fill="none" stroke="#a52a2a" d="M 291 205 L 272 302"/>
    <path fill="none" stroke="#d2b48c" d="M 272 302 L 195 237"/>
    <path fill="none" stroke="#228b22" d="M 195 237 L 291 200"/>
    <path fill="none" stroke="#7fffd4" d="M 291 200 L 276 304"/>
    <path fill="none" stroke="#fa8072" d="M 276 304 L 191 240"/>
    <path fill="none" stroke="#800080" d="M 191 240 L 291 196"/>
    <path fill="none" stroke="#ffa500" d="M 291 196 L 281 307"/>
    <path fill="none" stroke="#808080" d="M 281 307 L 187 244"/>
    <path fill="none" stroke="#00ffff" d="M 187 244 L 289 192"/>
    <path fill="none" stroke="#00ff00" d="M 289 192 L 285 309"/>
    <path fill="none" stroke="#ff0000" d="M 285 309 L 183 248"/>
    <path fill="none" stroke="#ff00ff" d="M 183 248 L 288 188"/>
    <path fill="none" stroke="#ffff00" d="M 288 188 L 290 311"/>
    <path fill="none" stroke="#ffffff" d="M 290 311 L 180 252"/>
    <path fill="none" stroke="#a52a2a" d="M 180 252 L 287 183"/>
    <path fill="none" stroke="#d2b48c" d="M 287 183 L 296 312"/>
    <path fill="none" stroke="#228b22" d="M 296 312 L 177 257"/>
    <path fill="none" stroke="#7fffd4" d="M 177 257 L 285 179"/>
    <path fill="none" stroke="#fa8072" d="M 285 179 L 301 313"/>
    <path fill="none" stroke="#800080" d="M 301 313 L 174 262"/>
    <path fill="none" stroke="#ffa500" d="M 174 262 L 282 175"/>
    <path fill="none" stroke="#808080" d="M 282 175 L 306 314"/>
    <path fill="none" stroke="#00ffff" d="M 306 314 L 171 267"/>
    <path fill="none" stroke="#00ff00" d="M 171 267 L 279 170"/>
    <path fill="none" stroke="#ff0000" d="M 279 170 L 312 313"/>
    <path fill="none" stroke="#ff00ff" d="M 312 313 L 169 272"/>
    <path fill="none" stroke="#ffff00" d="M 169 272 L 276 165"/>
    <path fill="none" stroke="#ffffff" d="M 276 165 L 318 312"/>
    <path fill="none" stroke="#a52a2a" d="M 318 312 L 167 277"/>
    <path fill="none" stroke="#d2b48c" d="M 167 277 L 272 160"/>
    <path fill="none" stroke="#228b22" d="M 272 160 L 324 310"/>
    <path fill="none" stroke="#7fffd4" d="M 324 310 L 165 282"/>
    <path fill="none" stroke="#fa8072" d="M 165 282 L 268 155"/>
    <path fill="none" stroke="#800080" d="M 268 155 L 330 308"/>
    <path fill="none" stroke="#ffa500" d="M 330 308 L 164 288"/>
    <path fill="none" stroke="#808080" d="M 164 288 L 263 151"/>
    <path fill="none" stroke="#00ffff" d="M 263 151 L 335 306"/>
    <path fill="none" stroke="#00ff00" d="M 335 306 L 162 294"/>
    <path fill="none" stroke="#ff0000" d="M 162 294 L 257 147"/>
    <path fill="none" stroke="#ff00ff" d="M 257 147 L 340 303"/>
    <path fill="none" stroke="#ffff00" d="M 340 303 L 161 300"/>
    <path fill="none" stroke="#ffffff" d="M 161 300 L 252 143"/>
    <path fill="none" stroke="#a52a2a" d="M 252 143 L 346 300"/>
    <path fill="none" stroke="#d2b48c" d="M 346 300 L 161 306"/>
    <path fill="none" stroke="#228b22" d="M 161 306 L 246 139"/>
    <path fill="none" stroke="#7fffd4" d="M 246 139 L 352 296"/>
    <path fill="none" stroke="#fa8072" d="M 352 296 L 162 313"/>
    <path fill="none" stroke="#800080" d="M 162 313 L 241 137"/>
    <path fill="none" stroke="#ffa500" d="M 241 137 L 358 293"/>
    <path fill="none" stroke="#808080" d="M 358 293 L 163 320"/>
    <path fill="none" stroke="#00ffff" d="M 163 320 L 234 134"/>
    <path fill="none" stroke="#00ff00" d="M 234 134 L 363 288"/>
    <path fill="none" stroke="#ff0000" d="M 363 288 L 164 327"/>
    <path fill="none" stroke="#ff00ff" d="M 164 327 L 227 132"/>
    <path fill="none" stroke="#ffff00" d="M 227 132 L 368 283"/>
    <path fill="none" stroke="#ffffff" d="M 368 283 L 165 334"/>
    <path fill="none" stroke="#a52a2a" d="M 165 334 L 220 130"/>
    <path fill="none" stroke="#d2b48c" d="M 220 130 L 373 278"/>
    <path fill="none" stroke="#228b22" d="M 373 278 L 167 341"/>
    <path fill="none" stroke="#7fffd4" d="M 167 341 L 212 129"/>
    <path fill="none" stroke="#fa8072" d="M 212 129 L 377 273"/>
    <path fill="none" stroke="#800080" d="M 377 273 L 169 349"/>
    <path fill="none" stroke="#ffa500" d="M 169 349 L 204 129"/>
    <path fill="none" stroke="#808080" d="M 204 129 L 381 268"/>
    <path fill="none" stroke="#00ffff" d="M 381 268 L 172 357"/>
    <path fill="none" stroke="#00ff00" d="M 172 357 L 196 129"/>
    <path fill="none" stroke="#ff0000" d="M 196 129 L 385 261"/>
    <path fill="none" stroke="#ff00ff" d="M 385 261 L 176 363"/>
    <path fill="none" stroke="#ffff00" d="M 176 363 L 188 128"/>
    <path fill="none" stroke="#ffffff" d="M 188 128 L 389 254"/>
    <path fill="none" stroke="#a52a2a" d="M 389 254 L 180 370"/>
    <path fill="none" stroke="#d2b48c" d="M 180 370 L 180 129"/>
    <path fill="none" stroke="#228b22" d="M 180 129 L 393 247"/>
    <path fill="none" stroke="#7fffd4" d="M 393 247 L 185 377"/>
    <path fill="none" stroke="#fa8072" d="M 185 377 L 172 130"/>
    <path fill="none" stroke="#800080" d="M 172 130 L 396 239"/>
    <path fill="none" stroke="#ffa500" d="M 396 239 L 190 383"/>
    <path fill="none" stroke="#808080" d="M 190 383 L 164 131"/>
    <path fill="none" stroke="#00ffff" d="M 164 131 L 399 231"/>
    <path fill="none" stroke="#00ff00" d="M 399 231 L 196 389"/>
    <path fill="none" stroke="#ff0000" d="M 196 389 L 155 133"/>
    <path fill="none" stroke="#ff00ff" d="M 155 133 L 400 222"/>
    <path fill="none" stroke="#ffff00" d="M 400 222 L 202 395"/>
    <path fill="none" stroke="#ffffff" d="M 202 395 L 147 136"/>
    <path fill="none" stroke="#a52a2a" d="M 147 136 L 402 214"/>
    <path fill="none" stroke="#d2b48c" d="M 402 214 L 208 401"/>
    <path fill="none" stroke="#228b22" d="M 208 401 L 138 139"/>
    <path fill="none" stroke="#7fffd4" d="M 138 139 L 403 205"/>
    <path fill="none" stroke="#fa8072" d="M 403 205 L 215 406"/>
    <path fill="none" stroke="#800080" d="M 215 406 L 129 143"/>
    <path fill="none" stroke="#ffa500" d="M 129 143 L 403 196"/>
    <path fill="none" stroke="#808080" d="M 403 196 L 222 411"/>
    <path fill="none" stroke="#00ffff" d="M 222 411 L 121 147"/>
    <path fill="none" stroke="#00ff00" d="M 121 147 L 403 187"/>
    <path fill="none" stroke="#ff0000" d="M 403 187 L 230 416"/>
    <path fill="none" stroke="#ff00ff" d="M 230 416 L 112 152"/>
    <path fill="none" stroke="#ffff00" d="M 112 152 L 402 177"/>
    <path fill="none" stroke="#ffffff" d="M 402 177 L 238 420"/>
    <path fill="none" stroke="#a52a2a" d="M 238 420 L 104 157"/>
    <path fill="none" stroke="#d2b48c" d="M 104 157 L 401 167"/>
    <path fill="none" stroke="#228b22" d="M 401 167 L 247 423"/>
    <path fill="none" stroke="#7fffd4" d="M 247 423 L 97 162"/>
    <path fill="none" stroke="#fa8072" d="M 97 162 L 400 157"/>
    <path fill="none" stroke="#800080" d="M 400 157 L 257 426"/>
    <path fill="none" stroke="#ffa500" d="M 257 426 L 90 169"/>
    <path fill="none" stroke="#808080" d="M 90 169 L 398 147"/>
    <path fill="none" stroke="#00ffff" d="M 398 147 L 267 429"/>
    <path fill="none" stroke="#00ff00" d="M 267 429 L 83 176"/>
    <path fill="none" stroke="#ff0000" d="M 83 176 L 396 138"/>
    <path fill="none" stroke="#ff00ff" d="M 396 138 L 277 432"/>
    <path fill="none" stroke="#ffff00" d="M 277 432 L 76 184"/>
    <path fill="none" stroke="#ffffff" d="M 76 184 L 392 128"/>
    <path fill="none" stroke="#a52a2a" d="M 392 128 L 287 433"/>
    <path fill="none" stroke="#d2b48c" d="M 287 433 L 70 191"/>
    <path fill="none" stroke="#228b22" d="M 70 191 L 389 117"/>
    <path fill="none" stroke="#7fffd4" d="M 389 117 L 298 433"/>
    <path fill="none" stroke="#fa8072" d="M 298 433 L 64 199"/>
    <path fill="none" stroke="#800080" d="M 64 199 L 384 107"/>
    <path fill="none" stroke="#ffa500" d="M 384 107 L 309 433"/>
    <path fill="none" stroke="#808080" d="M 309 433 L 59 208"/>
    <path fill="none" stroke="#00ffff" d="M 59 208 L 380 98"/>
    <path fill="none" stroke="#00ff00" d="M 380 98 L 321 434"/>
    <path fill="none" stroke="#ff0000" d="M 321 434 L 54 218"/>
    <path fill="none" stroke="#ff00ff" d="M 54 218 L 374 89"/>
    <path fill="none" stroke="#ffff00" d="M 374 89 L 332 433"/>
    <path fill="none" stroke="#ffffff" d="M 332 433 L 50 228"/>
    <path fill="none" stroke="#a52a2a" d="M 50 228 L 368 80"/>
    <path fill="none" stroke="#d2b48c" d="M 368 80 L 343 432"/>
    <path fill="none" stroke="#228b22" d="M 343 432 L 45 239"/>
    <path fill="none" stroke="#7fffd4" d="M 45 239 L 360 71"/>
    <path fill="none" stroke="#fa8072" d="M 360 71 L 354 430"/>
    <path fill="none" stroke="#800080" d="M 354 430 L 41 250"/>
    <path fill="none" stroke="#ffa500" d="M 41 250 L 352 63"/>
    <path fill="none" stroke="#808080" d="M 352 63 L 365 428"/>
    <path fill="none" stroke="#00ffff" d="M 365 428 L 38 261"/>
    <path fill="none" stroke="#00ff00" d="M 38 261 L 344 55"/>
    <path fill="none" stroke="#ff0000" d="M 344 55 L 376 425"/>
    <path fill="none" stroke="#ff00ff" d="M 376 425 L 35 273"/>
    <path fill="none" stroke="#ffff00" d="M 35 273 L 334 47"/>
    <path fill="none" stroke="#ffffff" d="M 334 47 L 386 420"/>
    <path fill="none" stroke="#a52a2a" d="M 386 420 L 32 284"/>
    <path fill="none" stroke="#d2b48c" d="M 32 284 L 324 39"/>
    <path fill="none" stroke="#228b22" d="M 324 39 L 397 415"/>
    <path fill="none" stroke="#7fffd4" d="M 397 415 L 31 296"/>
    <path fill="none" stroke="#fa8072" d="M 31 296 L 314 32"/>
    <path fill="none" stroke="#800080" d="M 314 32 L 408 409"/>
    <path fill="none" stroke="#ffa500" d="M 408 409 L 30 308"/>
    <path fill="none" stroke="#808080" d="M 30 308 L 303 25"/>
    <path fill="none" stroke="#00ffff" d="M 303 25 L 418 403"/>
    <path fill="none" stroke="#00ff00" d="M 418 403 L 30 320"/>
    <path fill="none" stroke="#ff0000" d="M 30 320 L 292 19"/>
    <path fill="none" stroke="#ff00ff" d="M 292 19 L 429 396"/>
    <path fill="none" stroke="#ffff00" d="M 429 396 L 31 333"/>
    <path fill="none" stroke="#ffffff" d="M 31 333 L 280 14"/>
    <path fill="none" stroke="#a52a2a" d="M 280 14 L 439 389"/>
    <path fill="none" stroke="#d2b48c" d="M 439 389 L 32 346"/>
    <path fill="none" stroke="#228b22" d="M 32 346 L 268 9"/>
    <path fill="none" stroke="#7fffd4" d="M 268 9 L 449 380"/>
    <path fill="none" stroke="#fa8072" d="M 449 380 L 35 358"/>
    <path fill="none" stroke="#800080" d="M 35 358 L 256 4"/>
    <path fill="none" stroke="#ffa500" d="M 256 4 L 459 370"/>
    <path fill="none" stroke="#808080" d="M 459 370 L 38 370"/>
    <path fill="none" stroke="#00ffff" d="M 38 370 L 243 0"/>
</svg>
